<svg width="40" height="40" viewBox="0 0 40 40" fill="none" xmlns="http://www.w3.org/2000/svg">
<g clip-path="url(#clip0_69_5221)">
<path d="M14.9993 20L18.3327 23.3333L24.9994 16.6666M6.66602 13.3333V26.6666M26.666 6.66663L13.3327 6.66663M33.3327 13.3333V26.6666M26.666 33.3333H13.3327M4.33268 11.6666H8.99935C9.93277 11.6666 10.3995 11.6666 10.756 11.485C11.0696 11.3252 11.3246 11.0702 11.4844 10.7566C11.666 10.4001 11.666 9.93338 11.666 8.99996V4.33329C11.666 3.39987 11.666 2.93316 11.4844 2.57664C11.3246 2.26304 11.0696 2.00807 10.756 1.84828C10.3995 1.66663 9.93277 1.66663 8.99935 1.66663H4.33268C3.39926 1.66663 2.93255 1.66663 2.57603 1.84828C2.26243 2.00807 2.00746 2.26304 1.84767 2.57664C1.66602 2.93316 1.66602 3.39987 1.66602 4.33329V8.99996C1.66602 9.93338 1.66602 10.4001 1.84767 10.7566C2.00746 11.0702 2.26243 11.3252 2.57603 11.485C2.93255 11.6666 3.39926 11.6666 4.33268 11.6666ZM4.33268 38.3333H8.99935C9.93277 38.3333 10.3995 38.3333 10.756 38.1516C11.0696 37.9918 11.3246 37.7369 11.4844 37.4233C11.666 37.0668 11.666 36.6 11.666 35.6666V31C11.666 30.0665 11.666 29.5998 11.4844 29.2433C11.3246 28.9297 11.0696 28.6747 10.756 28.5149C10.3995 28.3333 9.93277 28.3333 8.99935 28.3333H4.33268C3.39926 28.3333 2.93255 28.3333 2.57603 28.5149C2.26243 28.6747 2.00746 28.9297 1.84767 29.2433C1.66602 29.5998 1.66602 30.0665 1.66602 31V35.6666C1.66602 36.6 1.66602 37.0668 1.84767 37.4233C2.00746 37.7369 2.26243 37.9918 2.57603 38.1516C2.93255 38.3333 3.39926 38.3333 4.33268 38.3333ZM30.9994 11.6666H35.666C36.5994 11.6666 37.0661 11.6666 37.4227 11.485C37.7363 11.3252 37.9912 11.0702 38.151 10.7566C38.3327 10.4001 38.3327 9.93338 38.3327 8.99996V4.33329C38.3327 3.39987 38.3327 2.93316 38.151 2.57664C37.9912 2.26304 37.7363 2.00807 37.4227 1.84828C37.0661 1.66663 36.5994 1.66663 35.666 1.66663H30.9994C30.0659 1.66663 29.5992 1.66663 29.2427 1.84828C28.9291 2.00807 28.6741 2.26304 28.5143 2.57664C28.3327 2.93316 28.3327 3.39987 28.3327 4.33329V8.99996C28.3327 9.93338 28.3327 10.4001 28.5143 10.7566C28.6741 11.0702 28.9291 11.3252 29.2427 11.485C29.5992 11.6666 30.0659 11.6666 30.9994 11.6666ZM30.9994 38.3333H35.666C36.5994 38.3333 37.0661 38.3333 37.4227 38.1516C37.7363 37.9918 37.9912 37.7369 38.151 37.4233C38.3327 37.0668 38.3327 36.6 38.3327 35.6666V31C38.3327 30.0665 38.3327 29.5998 38.151 29.2433C37.9912 28.9297 37.7363 28.6747 37.4227 28.5149C37.0661 28.3333 36.5994 28.3333 35.666 28.3333H30.9994C30.0659 28.3333 29.5992 28.3333 29.2427 28.5149C28.9291 28.6747 28.6741 28.9297 28.5143 29.2433C28.3327 29.5998 28.3327 30.0665 28.3327 31V35.6666C28.3327 36.6 28.3327 37.0668 28.5143 37.4233C28.6741 37.7369 28.9291 37.9918 29.2427 38.1516C29.5992 38.3333 30.0659 38.3333 30.9994 38.3333Z" stroke="#0082F9" stroke-width="2" stroke-linecap="round"/>
</g>
<defs>
<clipPath id="clip0_69_5221">
<rect width="40" height="40" fill="white"/>
</clipPath>
</defs>
</svg>
