<svg width="204" height="131" viewBox="0 0 204 131" fill="none" xmlns="http://www.w3.org/2000/svg">
<g filter="url(#filter0_d_68_5200)">
<rect x="12.8367" y="38.1733" width="178.327" height="54.6533" rx="5.85706" stroke="#FFF" stroke-width="1.67345"/>
<path d="M74.5194 65.5233C74.5194 66.7177 74.293 67.7339 73.8402 68.5718C73.3909 69.4098 72.7776 70.0498 72.0003 70.4919C71.2266 70.9305 70.3566 71.1498 69.3903 71.1498C68.4169 71.1498 67.5433 70.9287 66.7696 70.4866C65.9959 70.0444 65.3844 69.4044 64.9351 68.5665C64.4859 67.7286 64.2612 66.7142 64.2612 65.5233C64.2612 64.3288 64.4859 63.3126 64.9351 62.4747C65.3844 61.6368 65.9959 60.9985 66.7696 60.56C67.5433 60.1178 68.4169 59.8968 69.3903 59.8968C70.3566 59.8968 71.2266 60.1178 72.0003 60.56C72.7776 60.9985 73.3909 61.6368 73.8402 62.4747C74.293 63.3126 74.5194 64.3288 74.5194 65.5233ZM72.1715 65.5233C72.1715 64.7495 72.0556 64.097 71.8238 63.5658C71.5956 63.0345 71.2729 62.6316 70.8558 62.357C70.4386 62.0825 69.9501 61.9452 69.3903 61.9452C68.8305 61.9452 68.342 62.0825 67.9249 62.357C67.5077 62.6316 67.1832 63.0345 66.9515 63.5658C66.7233 64.097 66.6092 64.7495 66.6092 65.5233C66.6092 66.297 66.7233 66.9495 66.9515 67.4808C67.1832 68.012 67.5077 68.415 67.9249 68.6895C68.342 68.9641 68.8305 69.1013 69.3903 69.1013C69.9501 69.1013 70.4386 68.9641 70.8558 68.6895C71.2729 68.415 71.5956 68.012 71.8238 67.4808C72.0556 66.9495 72.1715 66.297 72.1715 65.5233ZM76.1921 71V62.7849H78.401V64.2183H78.4866C78.6363 63.7084 78.8877 63.3233 79.2407 63.063C79.5937 62.7992 80.0001 62.6672 80.4601 62.6672C80.5742 62.6672 80.6972 62.6744 80.8291 62.6886C80.9611 62.7029 81.077 62.7225 81.1768 62.7475V64.7691C81.0698 64.7371 80.9218 64.7085 80.7329 64.6836C80.5439 64.6586 80.371 64.6461 80.2141 64.6461C79.8789 64.6461 79.5794 64.7192 79.3156 64.8654C79.0553 65.008 78.8485 65.2077 78.6951 65.4644C78.5454 65.7212 78.4705 66.0171 78.4705 66.3523V71H76.1921ZM84.9995 71.1337C84.3756 71.1337 83.8104 70.9733 83.3041 70.6524C82.8014 70.3279 82.402 69.8519 82.1061 69.2243C81.8137 68.5932 81.6675 67.8195 81.6675 66.9031C81.6675 65.9618 81.819 65.1792 82.1221 64.5552C82.4252 63.9277 82.8281 63.4588 83.3308 63.1486C83.8372 62.8348 84.3916 62.6779 84.9942 62.6779C85.4541 62.6779 85.8374 62.7564 86.1441 62.9133C86.4543 63.0666 86.7039 63.2591 86.8929 63.4909C87.0854 63.7191 87.2316 63.9437 87.3314 64.1648H87.401V60.0465H89.674V71H87.4277V69.6843H87.3314C87.2245 69.9125 87.0729 70.1389 86.8768 70.3635C86.6843 70.5846 86.4329 70.7682 86.1227 70.9144C85.8161 71.0606 85.4417 71.1337 84.9995 71.1337ZM85.7216 69.3206C86.0888 69.3206 86.399 69.2208 86.6522 69.0211C86.9089 68.8179 87.105 68.5344 87.2405 68.1707C87.3796 67.807 87.4491 67.3809 87.4491 66.8925C87.4491 66.404 87.3813 65.9797 87.2458 65.6195C87.1104 65.2594 86.9143 64.9813 86.6575 64.7852C86.4008 64.5891 86.0888 64.491 85.7216 64.491C85.3472 64.491 85.0316 64.5927 84.7749 64.7959C84.5182 64.9991 84.3239 65.2808 84.1919 65.6409C84.06 66.0011 83.994 66.4182 83.994 66.8925C83.994 67.3702 84.06 67.7928 84.1919 68.16C84.3274 68.5237 84.5217 68.809 84.7749 69.0158C85.0316 69.219 85.3472 69.3206 85.7216 69.3206ZM95.2911 71.1605C94.4461 71.1605 93.7187 70.9893 93.109 70.647C92.5029 70.3011 92.0358 69.8127 91.7077 69.1816C91.3797 68.5469 91.2157 67.7963 91.2157 66.9299C91.2157 66.0848 91.3797 65.3432 91.7077 64.705C92.0358 64.0667 92.4975 63.5693 93.093 63.2128C93.692 62.8562 94.3944 62.6779 95.2002 62.6779C95.7422 62.6779 96.2467 62.7653 96.7138 62.94C97.1845 63.1112 97.5945 63.3697 97.9439 63.7155C98.2969 64.0614 98.5715 64.4964 98.7676 65.0205C98.9637 65.5411 99.0617 66.1508 99.0617 66.8497V67.4754H92.1249V66.0635H96.917C96.917 65.7354 96.8457 65.4448 96.7031 65.1917C96.5605 64.9385 96.3626 64.7406 96.1094 64.598C95.8598 64.4518 95.5693 64.3787 95.2377 64.3787C94.8918 64.3787 94.5852 64.4589 94.3177 64.6194C94.0539 64.7763 93.8471 64.9884 93.6973 65.2558C93.5476 65.5197 93.4709 65.8139 93.4673 66.1383V67.4808C93.4673 67.8872 93.5422 68.2385 93.692 68.5344C93.8453 68.8303 94.061 69.0585 94.3391 69.219C94.6172 69.3794 94.9471 69.4597 95.3286 69.4597C95.5817 69.4597 95.8135 69.424 96.0239 69.3527C96.2342 69.2814 96.4143 69.1744 96.564 69.0318C96.7138 68.8892 96.8279 68.7145 96.9063 68.5077L99.0136 68.6467C98.9066 69.153 98.6874 69.5952 98.3558 69.9731C98.0277 70.3475 97.6034 70.6399 97.0828 70.8502C96.5658 71.057 95.9686 71.1605 95.2911 71.1605ZM100.549 71V62.7849H102.757V64.2183H102.843C102.993 63.7084 103.244 63.3233 103.597 63.063C103.95 62.7992 104.357 62.6672 104.817 62.6672C104.931 62.6672 105.054 62.6744 105.186 62.6886C105.318 62.7029 105.433 62.7225 105.533 62.7475V64.7691C105.426 64.7371 105.278 64.7085 105.089 64.6836C104.9 64.6586 104.727 64.6461 104.571 64.6461C104.235 64.6461 103.936 64.7192 103.672 64.8654C103.412 65.008 103.205 65.2077 103.052 65.4644C102.902 65.7212 102.827 66.0171 102.827 66.3523V71H100.549ZM112.475 66.2506V71H110.197V62.7849H112.368V64.2343H112.465C112.647 63.7565 112.951 63.3786 113.379 63.1005C113.807 62.8188 114.326 62.6779 114.936 62.6779C115.506 62.6779 116.004 62.8027 116.428 63.0523C116.852 63.3019 117.182 63.6585 117.417 64.122C117.653 64.582 117.77 65.1311 117.77 65.7693V71H115.492V66.1758C115.495 65.673 115.367 65.2808 115.107 64.9991C114.847 64.7139 114.488 64.5713 114.032 64.5713C113.725 64.5713 113.454 64.6372 113.219 64.7691C112.987 64.9011 112.805 65.0936 112.673 65.3468C112.545 65.5964 112.479 65.8977 112.475 66.2506ZM123.278 71.1605C122.447 71.1605 121.729 70.984 121.122 70.631C120.52 70.2744 120.055 69.7788 119.727 69.1441C119.398 68.5059 119.234 67.766 119.234 66.9245C119.234 66.0759 119.398 65.3343 119.727 64.6996C120.055 64.0614 120.52 63.5658 121.122 63.2128C121.729 62.8562 122.447 62.6779 123.278 62.6779C124.109 62.6779 124.825 62.8562 125.428 63.2128C126.034 63.5658 126.501 64.0614 126.829 64.6996C127.157 65.3343 127.321 66.0759 127.321 66.9245C127.321 67.766 127.157 68.5059 126.829 69.1441C126.501 69.7788 126.034 70.2744 125.428 70.631C124.825 70.984 124.109 71.1605 123.278 71.1605ZM123.289 69.3955C123.666 69.3955 123.982 69.2885 124.235 69.0746C124.488 68.8571 124.679 68.5611 124.807 68.1868C124.939 67.8124 125.005 67.3863 125.005 66.9085C125.005 66.4307 124.939 66.0046 124.807 65.6302C124.679 65.2558 124.488 64.9599 124.235 64.7424C123.982 64.5249 123.666 64.4162 123.289 64.4162C122.907 64.4162 122.586 64.5249 122.326 64.7424C122.069 64.9599 121.875 65.2558 121.743 65.6302C121.614 66.0046 121.55 66.4307 121.55 66.9085C121.55 67.3863 121.614 67.8124 121.743 68.1868C121.875 68.5611 122.069 68.8571 122.326 69.0746C122.586 69.2885 122.907 69.3955 123.289 69.3955ZM130.217 71L127.982 62.7849H130.287L131.56 68.3044H131.635L132.961 62.7849H135.223L136.571 68.2723H136.641L137.892 62.7849H140.192L137.962 71H135.55L134.138 65.8335H134.036L132.624 71H130.217Z" fill="#FFF"/>
<path d="M152.685 87.2136C153.145 87.2075 153.516 86.8364 153.522 86.3768V83.1192C153.522 82.6571 153.147 82.2825 152.685 82.2825C152.223 82.2825 151.848 82.6571 151.848 83.1192V86.3768C151.848 86.8389 152.223 87.2136 152.685 87.2136Z" fill="white"/>
<path d="M146.793 84.9916C147.112 84.673 147.625 84.6639 147.955 84.9711L150.298 87.2693C150.457 87.4247 150.547 87.638 150.547 87.8606C150.547 88.0833 150.457 88.2965 150.298 88.4519C150.142 88.611 149.929 88.6997 149.706 88.6973C149.469 88.7109 149.237 88.6215 149.071 88.4519L146.772 86.1537C146.465 85.824 146.474 85.3103 146.793 84.9916Z" fill="white"/>
<path d="M154.448 90.2704L164.656 93.5057C165.379 93.723 165.908 94.3441 166.006 95.0927C166.105 95.8412 165.755 96.5781 165.113 96.9753L161.543 99.2066C161.313 99.359 161.116 99.5563 160.963 99.7867L158.732 103.357C158.323 103.983 157.588 104.316 156.848 104.208C156.107 104.1 155.497 103.572 155.285 102.855L152.083 92.6355C151.862 91.964 152.039 91.2257 152.538 90.7259C153.038 90.2262 153.776 90.0501 154.448 90.2704Z" fill="white"/>
<path d="M156.4 86.9235C156.238 87.0791 156.023 87.1669 155.798 87.1689C155.57 87.1546 155.357 87.0503 155.207 86.8789C155.047 86.7235 154.957 86.5103 154.957 86.2876C154.957 86.0649 155.047 85.8517 155.207 85.6963L157.516 83.465C157.662 83.2998 157.868 83.1998 158.088 83.1873C158.308 83.1747 158.524 83.2506 158.687 83.3981C159.014 83.7248 159.014 84.254 158.687 84.5807L156.4 86.9235Z" fill="white"/>
<path d="M147.542 93.4053L145.244 95.737C144.955 96.0526 144.955 96.537 145.244 96.8526C145.401 97.0096 145.613 97.0978 145.835 97.098C146.056 97.0932 146.267 97.0056 146.427 96.8526L148.725 94.6213C149.051 94.2947 149.051 93.7655 148.725 93.4388C148.574 93.2748 148.363 93.1788 148.14 93.1725C147.918 93.1662 147.702 93.2501 147.542 93.4053Z" fill="white"/>
<path d="M144.876 90.0919H148.133C148.596 90.0919 148.97 90.4665 148.97 90.9286C148.97 91.3907 148.596 91.7653 148.133 91.7653H144.876C144.414 91.7653 144.039 91.3907 144.039 90.9286C144.039 90.4665 144.414 90.0919 144.876 90.0919Z" fill="white"/>
</g>
<defs>
<filter id="filter0_d_68_5200" x="0.846928" y="28.9718" width="202.306" height="91.7958" filterUnits="userSpaceOnUse" color-interpolation-filters="sRGB">
<feFlood flood-opacity="0" result="BackgroundImageFix"/>
<feColorMatrix in="SourceAlpha" type="matrix" values="0 0 0 0 0 0 0 0 0 0 0 0 0 0 0 0 0 0 127 0" result="hardAlpha"/>
<feOffset dy="2.78827"/>
<feGaussianBlur stdDeviation="5.57654"/>
<feColorMatrix type="matrix" values="0 0 0 0 1 0 0 0 0 0.0196078 0 0 0 0 0.572549 0 0 0 0.2 0"/>
<feBlend mode="normal" in2="BackgroundImageFix" result="effect1_dropShadow_68_5200"/>
<feBlend mode="normal" in="SourceGraphic" in2="effect1_dropShadow_68_5200" result="shape"/>
</filter>
</defs>
</svg>
