<svg width="200" height="132" viewBox="0 0 200 132" fill="none" xmlns="http://www.w3.org/2000/svg">
<path d="M95.1348 20.5527V44.3027H118.885" stroke="#FFF" stroke-width="3" stroke-linejoin="round"/>
<path d="M71.8424 93.0527C67.4702 93.0527 63.9258 89.5083 63.9258 85.1361V21.8027H99.5508L119.342 41.5944V85.1361C119.342 89.5083 115.798 93.0527 111.426 93.0527H71.8424Z" stroke="#FFF" stroke-width="3" stroke-linecap="round" stroke-linejoin="round"/>
<path d="M120.134 91.1127C120.683 91.1055 121.127 90.662 121.134 90.1127V86.2194C121.134 85.6671 120.686 85.2194 120.134 85.2194C119.582 85.2194 119.134 85.6671 119.134 86.2194V90.1127C119.134 90.665 119.582 91.1127 120.134 91.1127Z" fill="white"/>
<path d="M113.092 88.4572C113.473 88.0764 114.087 88.0655 114.481 88.4327L117.281 91.1794C117.471 91.3651 117.579 91.6199 117.579 91.886C117.579 92.1521 117.471 92.407 117.281 92.5927C117.095 92.7828 116.84 92.8888 116.574 92.886C116.29 92.9023 116.013 92.7954 115.814 92.5927L113.067 89.846C112.7 89.452 112.711 88.838 113.092 88.4572Z" fill="white"/>
<path d="M122.241 94.766L134.441 98.6327C135.305 98.8923 135.937 99.6347 136.055 100.529C136.173 101.424 135.755 102.305 134.987 102.779L130.721 105.446C130.445 105.628 130.21 105.864 130.027 106.139L127.361 110.406C126.873 111.155 125.994 111.552 125.109 111.423C124.224 111.294 123.495 110.663 123.241 109.806L119.414 97.5927C119.151 96.7902 119.361 95.9077 119.959 95.3105C120.556 94.7132 121.438 94.5027 122.241 94.766Z" fill="white"/>
<path d="M124.574 90.766C124.38 90.952 124.123 91.057 123.854 91.0594C123.582 91.0423 123.328 90.9175 123.147 90.7127C122.957 90.527 122.849 90.2721 122.849 90.006C122.849 89.7399 122.957 89.4851 123.147 89.2994L125.907 86.6327C126.082 86.4353 126.328 86.3157 126.591 86.3007C126.854 86.2857 127.112 86.3764 127.307 86.5527C127.697 86.9431 127.697 87.5756 127.307 87.966L124.574 90.766Z" fill="white"/>
<path d="M113.987 98.5127L111.241 101.299C110.895 101.677 110.895 102.255 111.241 102.633C111.428 102.82 111.682 102.926 111.947 102.926C112.211 102.92 112.464 102.816 112.654 102.633L115.401 99.966C115.791 99.5756 115.791 98.9431 115.401 98.5527C115.221 98.3567 114.969 98.242 114.703 98.2344C114.436 98.2269 114.179 98.3273 113.987 98.5127Z" fill="white"/>
<path d="M110.801 94.5527H114.694C115.246 94.5527 115.694 95.0004 115.694 95.5527C115.694 96.105 115.246 96.5527 114.694 96.5527H110.801C110.248 96.5527 109.801 96.105 109.801 95.5527C109.801 95.0004 110.248 94.5527 110.801 94.5527Z" fill="white"/>
</svg>
