<svg width="200" height="132" viewBox="0 0 200 132" fill="none" xmlns="http://www.w3.org/2000/svg">
<path d="M42.334 51L72.334 51" stroke="white" stroke-width="2" stroke-linecap="round"/>
<path d="M42.334 81L72.334 81" stroke="white" stroke-width="2" stroke-linecap="round"/>
<path d="M31.334 66H72.334" stroke="white" stroke-width="2" stroke-linecap="round"/>
<path d="M93.1265 40.8198L121.084 62.5647C123.682 64.5853 127.32 64.5853 129.918 62.5646L157.876 40.8198M101.04 94.7774H149.962C153.991 94.7774 156.006 94.7774 157.545 93.9933C158.898 93.3036 159.999 92.203 160.689 90.8493C161.473 89.3103 161.473 87.2957 161.473 83.2665V48.7336C161.473 44.7043 161.473 42.6897 160.689 41.1508C159.999 39.7971 158.898 38.6965 157.545 38.0067C156.006 37.2226 153.991 37.2226 149.962 37.2226H101.04C97.011 37.2226 94.9964 37.2226 93.4575 38.0067C92.1038 38.6965 91.0032 39.7971 90.3134 41.1508C89.5293 42.6897 89.5293 44.7043 89.5293 48.7336V83.2665C89.5293 87.2957 89.5293 89.3103 90.3134 90.8493C91.0032 92.203 92.1038 93.3036 93.4575 93.9933C94.9964 94.7774 97.0111 94.7774 101.04 94.7774Z" stroke="#FFF" stroke-width="3"/>
</svg>
