<svg width="349" height="55" viewBox="0 0 349 55" fill="none" xmlns="http://www.w3.org/2000/svg">
<path d="M0 2L44.1309 42.3322H0V2Z" fill="white"/>
<path d="M66.8312 42.9167C63.8052 42.9167 61.1883 42.2738 58.9805 40.9881C56.7857 39.6894 55.0909 37.8842 53.8961 35.5725C52.7013 33.2479 52.1039 30.5531 52.1039 27.4881C52.1039 24.3972 52.7013 21.6959 53.8961 19.3842C55.0909 17.0595 56.7857 15.2544 58.9805 13.9686C61.1883 12.6699 63.8052 12.0206 66.8312 12.0206C69.8571 12.0206 72.4675 12.6699 74.6623 13.9686C76.8701 15.2544 78.5714 17.0595 79.7662 19.3842C80.961 21.6959 81.5584 24.3972 81.5584 27.4881C81.5584 30.5531 80.961 33.2479 79.7662 35.5725C78.5714 37.8842 76.8701 39.6894 74.6623 40.9881C72.4675 42.2738 69.8571 42.9167 66.8312 42.9167ZM66.8701 36.4881C68.2468 36.4881 69.3961 36.0985 70.3182 35.3193C71.2403 34.5271 71.9351 33.4492 72.4026 32.0855C72.8831 30.7219 73.1234 29.1699 73.1234 27.4297C73.1234 25.6894 72.8831 24.1375 72.4026 22.7738C71.9351 21.4102 71.2403 20.3323 70.3182 19.5401C69.3961 18.7479 68.2468 18.3518 66.8701 18.3518C65.4805 18.3518 64.3117 18.7479 63.3636 19.5401C62.4286 20.3323 61.7208 21.4102 61.2403 22.7738C60.7727 24.1375 60.539 25.6894 60.539 27.4297C60.539 29.1699 60.7727 30.7219 61.2403 32.0855C61.7208 33.4492 62.4286 34.5271 63.3636 35.3193C64.3117 36.0985 65.4805 36.4881 66.8701 36.4881ZM91.1136 53.5531C90.0617 53.5531 89.0747 53.4686 88.1526 53.2998C87.2435 53.144 86.4903 52.9427 85.8929 52.6959L87.763 46.5011C88.737 46.7998 89.6136 46.9621 90.3929 46.9881C91.1851 47.0141 91.8669 46.8323 92.4383 46.4427C93.0227 46.0531 93.4968 45.3907 93.8604 44.4557L94.3474 43.1894L83.6136 12.4102H92.3409L98.5357 34.3842H98.8474L105.101 12.4102H113.886L102.256 45.566C101.698 47.1764 100.938 48.579 99.9773 49.7738C99.0292 50.9816 97.8279 51.9102 96.3734 52.5595C94.9188 53.2219 93.1656 53.5531 91.1136 53.5531ZM118.133 53.5531V12.4102H126.315V17.4362H126.685C127.049 16.631 127.575 15.8128 128.263 14.9816C128.964 14.1375 129.873 13.4362 130.99 12.8777C132.12 12.3063 133.523 12.0206 135.198 12.0206C137.38 12.0206 139.393 12.592 141.237 13.7349C143.081 14.8647 144.555 16.5725 145.659 18.8583C146.763 21.131 147.315 23.9816 147.315 27.4102C147.315 30.7479 146.776 33.566 145.698 35.8647C144.633 38.1505 143.179 39.8842 141.334 41.066C139.503 42.2349 137.451 42.8193 135.179 42.8193C133.568 42.8193 132.198 42.5531 131.068 42.0206C129.951 41.4881 129.036 40.8193 128.321 40.0141C127.607 39.1959 127.062 38.3712 126.685 37.5401H126.432V53.5531H118.133ZM126.256 27.3712C126.256 29.1505 126.503 30.7024 126.997 32.0271C127.49 33.3518 128.205 34.3842 129.14 35.1245C130.075 35.8518 131.211 36.2154 132.549 36.2154C133.899 36.2154 135.042 35.8453 135.977 35.105C136.912 34.3518 137.62 33.3128 138.101 31.9881C138.594 30.6505 138.841 29.1115 138.841 27.3712C138.841 25.644 138.601 24.1245 138.12 22.8128C137.64 21.5011 136.932 20.4751 135.997 19.7349C135.062 18.9946 133.912 18.6245 132.549 18.6245C131.198 18.6245 130.055 18.9816 129.12 19.6959C128.198 20.4102 127.49 21.4232 126.997 22.7349C126.503 24.0466 126.256 25.592 126.256 27.3712ZM157.698 42.8388C156.412 42.8388 155.308 42.3842 154.386 41.4751C153.477 40.5531 153.023 39.4492 153.023 38.1634C153.023 36.8907 153.477 35.7998 154.386 34.8907C155.308 33.9816 156.412 33.5271 157.698 33.5271C158.945 33.5271 160.036 33.9816 160.971 34.8907C161.906 35.7998 162.373 36.8907 162.373 38.1634C162.373 39.0206 162.153 39.8063 161.711 40.5206C161.282 41.2219 160.718 41.7868 160.016 42.2154C159.315 42.631 158.542 42.8388 157.698 42.8388ZM180.213 42.8193C177.94 42.8193 175.881 42.2349 174.037 41.066C172.206 39.8842 170.752 38.1505 169.674 35.8647C168.609 33.566 168.076 30.7479 168.076 27.4102C168.076 23.9816 168.628 21.131 169.732 18.8583C170.836 16.5725 172.304 14.8647 174.135 13.7349C175.979 12.592 177.998 12.0206 180.193 12.0206C181.868 12.0206 183.265 12.3063 184.381 12.8777C185.511 13.4362 186.42 14.1375 187.109 14.9816C187.81 15.8128 188.343 16.631 188.706 17.4362H188.959V2.43617H197.239V42.3323H189.057V37.5401H188.706C188.317 38.3712 187.765 39.1959 187.05 40.0141C186.349 40.8193 185.433 41.4881 184.304 42.0206C183.187 42.5531 181.823 42.8193 180.213 42.8193ZM182.843 36.2154C184.18 36.2154 185.31 35.8518 186.232 35.1245C187.167 34.3842 187.881 33.3518 188.375 32.0271C188.881 30.7024 189.135 29.1505 189.135 27.3712C189.135 25.592 188.888 24.0466 188.394 22.7349C187.901 21.4232 187.187 20.4102 186.252 19.6959C185.317 18.9816 184.18 18.6245 182.843 18.6245C181.479 18.6245 180.33 18.9946 179.394 19.7349C178.459 20.4751 177.752 21.5011 177.271 22.8128C176.791 24.1245 176.55 25.644 176.55 27.3712C176.55 29.1115 176.791 30.6505 177.271 31.9881C177.765 33.3128 178.472 34.3518 179.394 35.105C180.33 35.8453 181.479 36.2154 182.843 36.2154ZM217.698 42.9167C214.62 42.9167 211.971 42.2933 209.75 41.0466C207.542 39.7868 205.841 38.0076 204.646 35.7089C203.451 33.3972 202.854 30.6634 202.854 27.5076C202.854 24.4297 203.451 21.7284 204.646 19.4037C205.841 17.079 207.523 15.2673 209.692 13.9686C211.873 12.6699 214.432 12.0206 217.367 12.0206C219.341 12.0206 221.179 12.3388 222.88 12.9751C224.594 13.5985 226.088 14.5401 227.36 15.7998C228.646 17.0595 229.646 18.644 230.36 20.5531C231.075 22.4492 231.432 24.6699 231.432 27.2154V29.4946H206.166V24.3518H223.62C223.62 23.157 223.36 22.0985 222.841 21.1764C222.321 20.2544 221.601 19.5336 220.679 19.0141C219.769 18.4816 218.711 18.2154 217.503 18.2154C216.243 18.2154 215.127 18.5076 214.153 19.092C213.192 19.6634 212.438 20.4362 211.893 21.4102C211.347 22.3712 211.068 23.4427 211.055 24.6245V29.5141C211.055 30.9946 211.328 32.2738 211.873 33.3518C212.432 34.4297 213.218 35.2608 214.231 35.8453C215.243 36.4297 216.445 36.7219 217.834 36.7219C218.756 36.7219 219.601 36.592 220.367 36.3323C221.133 36.0725 221.789 35.6829 222.334 35.1634C222.88 34.644 223.295 34.0076 223.581 33.2544L231.256 33.7608C230.867 35.605 230.068 37.2154 228.86 38.592C227.666 39.9557 226.12 41.0206 224.224 41.7868C222.341 42.5401 220.166 42.9167 217.698 42.9167ZM261.743 20.9427L254.146 21.4102C254.016 20.7608 253.737 20.1764 253.308 19.657C252.88 19.1245 252.315 18.7024 251.614 18.3907C250.925 18.066 250.101 17.9037 249.14 17.9037C247.854 17.9037 246.769 18.1764 245.886 18.7219C245.003 19.2544 244.562 19.9686 244.562 20.8647C244.562 21.579 244.847 22.1829 245.419 22.6764C245.99 23.1699 246.971 23.566 248.36 23.8647L253.776 24.9557C256.685 25.5531 258.854 26.5141 260.282 27.8388C261.711 29.1634 262.425 30.9037 262.425 33.0595C262.425 35.0206 261.847 36.7414 260.692 38.2219C259.549 39.7024 257.977 40.8582 255.977 41.6894C253.99 42.5076 251.698 42.9167 249.101 42.9167C245.14 42.9167 241.984 42.092 239.633 40.4427C237.295 38.7803 235.925 36.5206 235.523 33.6634L243.685 33.2349C243.932 34.4427 244.529 35.3647 245.477 36.0011C246.425 36.6245 247.64 36.9362 249.12 36.9362C250.575 36.9362 251.743 36.657 252.627 36.0985C253.523 35.5271 253.977 34.7933 253.99 33.8972C253.977 33.144 253.659 32.5271 253.036 32.0466C252.412 31.5531 251.451 31.1764 250.153 30.9167L244.971 29.8842C242.049 29.2998 239.873 28.2868 238.445 26.8453C237.029 25.4037 236.321 23.566 236.321 21.3323C236.321 19.4102 236.841 17.7544 237.88 16.3647C238.932 14.9751 240.406 13.9037 242.302 13.1505C244.211 12.3972 246.445 12.0206 249.003 12.0206C252.782 12.0206 255.756 12.8193 257.925 14.4167C260.107 16.0141 261.38 18.1894 261.743 20.9427ZM267.651 42.3323V12.4102H275.95V42.3323H267.651ZM271.82 8.55306C270.586 8.55306 269.528 8.14396 268.644 7.32578C267.774 6.49461 267.339 5.50111 267.339 4.34526C267.339 3.20241 267.774 2.22189 268.644 1.40371C269.528 0.572536 270.586 0.156951 271.82 0.156951C273.054 0.156951 274.106 0.572536 274.976 1.40371C275.859 2.22189 276.3 3.20241 276.3 4.34526C276.3 5.50111 275.859 6.49461 274.976 7.32578C274.106 8.14396 273.054 8.55306 271.82 8.55306ZM296.078 54.1764C293.39 54.1764 291.084 53.8063 289.162 53.066C287.253 52.3388 285.734 51.3453 284.604 50.0855C283.474 48.8258 282.74 47.4102 282.403 45.8388L290.078 44.8063C290.312 45.4037 290.682 45.9621 291.188 46.4816C291.695 47.0011 292.364 47.4167 293.195 47.7284C294.039 48.0531 295.065 48.2154 296.273 48.2154C298.078 48.2154 299.565 47.7738 300.734 46.8907C301.916 46.0206 302.506 44.5595 302.506 42.5076V37.0336H302.156C301.792 37.8647 301.247 38.6505 300.519 39.3907C299.792 40.131 298.857 40.7349 297.714 41.2024C296.571 41.6699 295.208 41.9037 293.623 41.9037C291.377 41.9037 289.331 41.3842 287.487 40.3453C285.656 39.2933 284.195 37.6894 283.104 35.5336C282.026 33.3647 281.487 30.6245 281.487 27.3128C281.487 23.9232 282.039 21.092 283.143 18.8193C284.247 16.5466 285.714 14.8453 287.545 13.7154C289.39 12.5855 291.409 12.0206 293.604 12.0206C295.279 12.0206 296.682 12.3063 297.812 12.8777C298.942 13.4362 299.851 14.1375 300.539 14.9816C301.24 15.8128 301.779 16.631 302.156 17.4362H302.468V12.4102H310.708V42.6245C310.708 45.1699 310.084 47.2998 308.838 49.0141C307.591 50.7284 305.864 52.0141 303.656 52.8712C301.461 53.7414 298.935 54.1764 296.078 54.1764ZM296.253 35.6699C297.591 35.6699 298.721 35.3388 299.643 34.6764C300.578 34.0011 301.292 33.0401 301.786 31.7933C302.292 30.5336 302.545 29.0271 302.545 27.2738C302.545 25.5206 302.299 24.0011 301.805 22.7154C301.312 21.4167 300.597 20.4102 299.662 19.6959C298.727 18.9816 297.591 18.6245 296.253 18.6245C294.89 18.6245 293.74 18.9946 292.805 19.7349C291.87 20.4621 291.162 21.4751 290.682 22.7738C290.201 24.0725 289.961 25.5725 289.961 27.2738C289.961 29.0011 290.201 30.4946 290.682 31.7544C291.175 33.0011 291.883 33.9686 292.805 34.657C293.74 35.3323 294.89 35.6699 296.253 35.6699ZM325.61 25.0336V42.3323H317.312V12.4102H325.221V17.6894H325.571C326.234 15.9492 327.344 14.5725 328.903 13.5595C330.461 12.5336 332.351 12.0206 334.571 12.0206C336.649 12.0206 338.461 12.4751 340.006 13.3842C341.552 14.2933 342.753 15.592 343.61 17.2803C344.468 18.9557 344.896 20.9557 344.896 23.2803V42.3323H336.597V24.7608C336.61 22.9297 336.143 21.5011 335.195 20.4751C334.247 19.4362 332.942 18.9167 331.279 18.9167C330.162 18.9167 329.175 19.157 328.318 19.6375C327.474 20.118 326.812 20.8193 326.331 21.7414C325.864 22.6505 325.623 23.7479 325.61 25.0336Z" fill="white"/>
</svg>
