<svg width="349" height="55" viewBox="0 0 349 55" fill="#FFF" xmlns="http://www.w3.org/2000/svg">
<path d="M0 2.66772L44.1309 43H0V2.66772Z" fill="#FFF"/>
<path d="M66.8312 43.5844C63.8052 43.5844 61.1883 42.9416 58.9805 41.6558C56.7857 40.3571 55.0909 38.5519 53.8961 36.2403C52.7013 33.9156 52.1039 31.2208 52.1039 28.1558C52.1039 25.0649 52.7013 22.3636 53.8961 20.0519C55.0909 17.7273 56.7857 15.9221 58.9805 14.6364C61.1883 13.3377 63.8052 12.6883 66.8312 12.6883C69.8571 12.6883 72.4675 13.3377 74.6623 14.6364C76.8701 15.9221 78.5714 17.7273 79.7662 20.0519C80.961 22.3636 81.5584 25.0649 81.5584 28.1558C81.5584 31.2208 80.961 33.9156 79.7662 36.2403C78.5714 38.5519 76.8701 40.3571 74.6623 41.6558C72.4675 42.9416 69.8571 43.5844 66.8312 43.5844ZM66.8701 37.1558C68.2468 37.1558 69.3961 36.7662 70.3182 35.987C71.2403 35.1948 71.9351 34.1169 72.4026 32.7532C72.8831 31.3896 73.1234 29.8377 73.1234 28.0974C73.1234 26.3571 72.8831 24.8052 72.4026 23.4416C71.9351 22.0779 71.2403 21 70.3182 20.2078C69.3961 19.4156 68.2468 19.0195 66.8701 19.0195C65.4805 19.0195 64.3117 19.4156 63.3636 20.2078C62.4286 21 61.7208 22.0779 61.2403 23.4416C60.7727 24.8052 60.539 26.3571 60.539 28.0974C60.539 29.8377 60.7727 31.3896 61.2403 32.7532C61.7208 34.1169 62.4286 35.1948 63.3636 35.987C64.3117 36.7662 65.4805 37.1558 66.8701 37.1558ZM91.1136 54.2208C90.0617 54.2208 89.0747 54.1364 88.1526 53.9675C87.2435 53.8117 86.4903 53.6104 85.8929 53.3636L87.763 47.1688C88.737 47.4675 89.6136 47.6299 90.3929 47.6558C91.1851 47.6818 91.8669 47.5 92.4383 47.1104C93.0227 46.7208 93.4968 46.0584 93.8604 45.1234L94.3474 43.8571L83.6136 13.0779H92.3409L98.5357 35.0519H98.8474L105.101 13.0779H113.886L102.256 46.2338C101.698 47.8442 100.938 49.2468 99.9773 50.4416C99.0292 51.6494 97.8279 52.5779 96.3734 53.2273C94.9188 53.8896 93.1656 54.2208 91.1136 54.2208ZM118.133 54.2208V13.0779H126.315V18.1039H126.685C127.049 17.2987 127.575 16.4805 128.263 15.6494C128.964 14.8052 129.873 14.1039 130.99 13.5455C132.12 12.974 133.523 12.6883 135.198 12.6883C137.38 12.6883 139.393 13.2597 141.237 14.4026C143.081 15.5325 144.555 17.2403 145.659 19.526C146.763 21.7987 147.315 24.6494 147.315 28.0779C147.315 31.4156 146.776 34.2338 145.698 36.5325C144.633 38.8182 143.179 40.5519 141.334 41.7338C139.503 42.9026 137.451 43.487 135.179 43.487C133.568 43.487 132.198 43.2208 131.068 42.6883C129.951 42.1558 129.036 41.487 128.321 40.6818C127.607 39.8636 127.062 39.039 126.685 38.2078H126.432V54.2208H118.133ZM126.256 28.039C126.256 29.8182 126.503 31.3701 126.997 32.6948C127.49 34.0195 128.205 35.0519 129.14 35.7922C130.075 36.5195 131.211 36.8831 132.549 36.8831C133.899 36.8831 135.042 36.513 135.977 35.7727C136.912 35.0195 137.62 33.9805 138.101 32.6558C138.594 31.3182 138.841 29.7792 138.841 28.039C138.841 26.3117 138.601 24.7922 138.12 23.4805C137.64 22.1688 136.932 21.1429 135.997 20.4026C135.062 19.6623 133.912 19.2922 132.549 19.2922C131.198 19.2922 130.055 19.6494 129.12 20.3636C128.198 21.0779 127.49 22.0909 126.997 23.4026C126.503 24.7143 126.256 26.2597 126.256 28.039ZM157.698 43.5065C156.412 43.5065 155.308 43.0519 154.386 42.1429C153.477 41.2208 153.023 40.1169 153.023 38.8312C153.023 37.5584 153.477 36.4675 154.386 35.5584C155.308 34.6494 156.412 34.1948 157.698 34.1948C158.945 34.1948 160.036 34.6494 160.971 35.5584C161.906 36.4675 162.373 37.5584 162.373 38.8312C162.373 39.6883 162.153 40.474 161.711 41.1883C161.282 41.8896 160.718 42.4545 160.016 42.8831C159.315 43.2987 158.542 43.5065 157.698 43.5065ZM180.213 43.487C177.94 43.487 175.881 42.9026 174.037 41.7338C172.206 40.5519 170.752 38.8182 169.674 36.5325C168.609 34.2338 168.076 31.4156 168.076 28.0779C168.076 24.6494 168.628 21.7987 169.732 19.526C170.836 17.2403 172.304 15.5325 174.135 14.4026C175.979 13.2597 177.998 12.6883 180.193 12.6883C181.868 12.6883 183.265 12.974 184.381 13.5455C185.511 14.1039 186.42 14.8052 187.109 15.6494C187.81 16.4805 188.343 17.2987 188.706 18.1039H188.959V3.1039H197.239V43H189.057V38.2078H188.706C188.317 39.039 187.765 39.8636 187.05 40.6818C186.349 41.487 185.433 42.1558 184.304 42.6883C183.187 43.2208 181.823 43.487 180.213 43.487ZM182.843 36.8831C184.18 36.8831 185.31 36.5195 186.232 35.7922C187.167 35.0519 187.881 34.0195 188.375 32.6948C188.881 31.3701 189.135 29.8182 189.135 28.039C189.135 26.2597 188.888 24.7143 188.394 23.4026C187.901 22.0909 187.187 21.0779 186.252 20.3636C185.317 19.6494 184.18 19.2922 182.843 19.2922C181.479 19.2922 180.33 19.6623 179.394 20.4026C178.459 21.1429 177.752 22.1688 177.271 23.4805C176.791 24.7922 176.55 26.3117 176.55 28.039C176.55 29.7792 176.791 31.3182 177.271 32.6558C177.765 33.9805 178.472 35.0195 179.394 35.7727C180.33 36.513 181.479 36.8831 182.843 36.8831ZM217.698 43.5844C214.62 43.5844 211.971 42.961 209.75 41.7143C207.542 40.4545 205.841 38.6753 204.646 36.3766C203.451 34.0649 202.854 31.3312 202.854 28.1753C202.854 25.0974 203.451 22.3961 204.646 20.0714C205.841 17.7468 207.523 15.9351 209.692 14.6364C211.873 13.3377 214.432 12.6883 217.367 12.6883C219.341 12.6883 221.179 13.0065 222.88 13.6429C224.594 14.2662 226.088 15.2078 227.36 16.4675C228.646 17.7273 229.646 19.3117 230.36 21.2208C231.075 23.1169 231.432 25.3377 231.432 27.8831V30.1623H206.166V25.0195H223.62C223.62 23.8247 223.36 22.7662 222.841 21.8442C222.321 20.9221 221.601 20.2013 220.679 19.6818C219.769 19.1494 218.711 18.8831 217.503 18.8831C216.243 18.8831 215.127 19.1753 214.153 19.7597C213.192 20.3312 212.438 21.1039 211.893 22.0779C211.347 23.039 211.068 24.1104 211.055 25.2922V30.1818C211.055 31.6623 211.328 32.9416 211.873 34.0195C212.432 35.0974 213.218 35.9286 214.231 36.513C215.243 37.0974 216.445 37.3896 217.834 37.3896C218.756 37.3896 219.601 37.2597 220.367 37C221.133 36.7403 221.789 36.3506 222.334 35.8312C222.88 35.3117 223.295 34.6753 223.581 33.9221L231.256 34.4286C230.867 36.2727 230.068 37.8831 228.86 39.2597C227.666 40.6234 226.12 41.6883 224.224 42.4545C222.341 43.2078 220.166 43.5844 217.698 43.5844ZM261.743 21.6104L254.146 22.0779C254.016 21.4286 253.737 20.8442 253.308 20.3247C252.88 19.7922 252.315 19.3701 251.614 19.0584C250.925 18.7338 250.101 18.5714 249.14 18.5714C247.854 18.5714 246.769 18.8442 245.886 19.3896C245.003 19.9221 244.562 20.6364 244.562 21.5325C244.562 22.2468 244.847 22.8506 245.419 23.3442C245.99 23.8377 246.971 24.2338 248.36 24.5325L253.776 25.6234C256.685 26.2208 258.854 27.1818 260.282 28.5065C261.711 29.8312 262.425 31.5714 262.425 33.7273C262.425 35.6883 261.847 37.4091 260.692 38.8896C259.549 40.3701 257.977 41.526 255.977 42.3571C253.99 43.1753 251.698 43.5844 249.101 43.5844C245.14 43.5844 241.984 42.7597 239.633 41.1104C237.295 39.4481 235.925 37.1883 235.523 34.3312L243.685 33.9026C243.932 35.1104 244.529 36.0325 245.477 36.6688C246.425 37.2922 247.64 37.6039 249.12 37.6039C250.575 37.6039 251.743 37.3247 252.627 36.7662C253.523 36.1948 253.977 35.461 253.99 34.5649C253.977 33.8117 253.659 33.1948 253.036 32.7143C252.412 32.2208 251.451 31.8442 250.153 31.5844L244.971 30.5519C242.049 29.9675 239.873 28.9545 238.445 27.513C237.029 26.0714 236.321 24.2338 236.321 22C236.321 20.0779 236.841 18.4221 237.88 17.0325C238.932 15.6429 240.406 14.5714 242.302 13.8182C244.211 13.0649 246.445 12.6883 249.003 12.6883C252.782 12.6883 255.756 13.487 257.925 15.0844C260.107 16.6818 261.38 18.8571 261.743 21.6104ZM267.651 43V13.0779H275.95V43H267.651ZM271.82 9.22078C270.586 9.22078 269.528 8.81169 268.644 7.99351C267.774 7.16234 267.339 6.16883 267.339 5.01299C267.339 3.87013 267.774 2.88961 268.644 2.07143C269.528 1.24026 270.586 0.824676 271.82 0.824676C273.054 0.824676 274.106 1.24026 274.976 2.07143C275.859 2.88961 276.3 3.87013 276.3 5.01299C276.3 6.16883 275.859 7.16234 274.976 7.99351C274.106 8.81169 273.054 9.22078 271.82 9.22078ZM296.078 54.8442C293.39 54.8442 291.084 54.474 289.162 53.7338C287.253 53.0065 285.734 52.013 284.604 50.7532C283.474 49.4935 282.74 48.0779 282.403 46.5065L290.078 45.474C290.312 46.0714 290.682 46.6299 291.188 47.1494C291.695 47.6688 292.364 48.0844 293.195 48.3961C294.039 48.7208 295.065 48.8831 296.273 48.8831C298.078 48.8831 299.565 48.4416 300.734 47.5584C301.916 46.6883 302.506 45.2273 302.506 43.1753V37.7013H302.156C301.792 38.5325 301.247 39.3182 300.519 40.0584C299.792 40.7987 298.857 41.4026 297.714 41.8701C296.571 42.3377 295.208 42.5714 293.623 42.5714C291.377 42.5714 289.331 42.0519 287.487 41.013C285.656 39.961 284.195 38.3571 283.104 36.2013C282.026 34.0325 281.487 31.2922 281.487 27.9805C281.487 24.5909 282.039 21.7597 283.143 19.487C284.247 17.2143 285.714 15.513 287.545 14.3831C289.39 13.2532 291.409 12.6883 293.604 12.6883C295.279 12.6883 296.682 12.974 297.812 13.5455C298.942 14.1039 299.851 14.8052 300.539 15.6494C301.24 16.4805 301.779 17.2987 302.156 18.1039H302.468V13.0779H310.708V43.2922C310.708 45.8377 310.084 47.9675 308.838 49.6818C307.591 51.3961 305.864 52.6818 303.656 53.539C301.461 54.4091 298.935 54.8442 296.078 54.8442ZM296.253 36.3377C297.591 36.3377 298.721 36.0065 299.643 35.3442C300.578 34.6688 301.292 33.7078 301.786 32.461C302.292 31.2013 302.545 29.6948 302.545 27.9416C302.545 26.1883 302.299 24.6688 301.805 23.3831C301.312 22.0844 300.597 21.0779 299.662 20.3636C298.727 19.6494 297.591 19.2922 296.253 19.2922C294.89 19.2922 293.74 19.6623 292.805 20.4026C291.87 21.1299 291.162 22.1429 290.682 23.4416C290.201 24.7403 289.961 26.2403 289.961 27.9416C289.961 29.6688 290.201 31.1623 290.682 32.4221C291.175 33.6688 291.883 34.6364 292.805 35.3247C293.74 36 294.89 36.3377 296.253 36.3377ZM325.61 25.7013V43H317.312V13.0779H325.221V18.3571H325.571C326.234 16.6169 327.344 15.2403 328.903 14.2273C330.461 13.2013 332.351 12.6883 334.571 12.6883C336.649 12.6883 338.461 13.1429 340.006 14.0519C341.552 14.961 342.753 16.2597 343.61 17.9481C344.468 19.6234 344.896 21.6234 344.896 23.9481V43H336.597V25.4286C336.61 23.5974 336.143 22.1688 335.195 21.1429C334.247 20.1039 332.942 19.5844 331.279 19.5844C330.162 19.5844 329.175 19.8247 328.318 20.3052C327.474 20.7857 326.812 21.487 326.331 22.4091C325.864 23.3182 325.623 24.4156 325.61 25.7013Z" fill="#FF0592"/>
</svg>
