<svg width="40" height="40" viewBox="0 0 40 40" fill="none" xmlns="http://www.w3.org/2000/svg">
<g clip-path="url(#clip0_69_5213)">
<path d="M13.3327 1.66663V38.3333M38.3327 13.3333L1.66602 13.3333M26.666 1.66663V38.3333M38.3327 26.6666L1.66602 26.6666M14.9993 38.3333H24.9994C29.6665 38.3333 32 38.3333 33.7826 37.425C35.3506 36.6261 36.6255 35.3512 37.4244 33.7832C38.3327 32.0006 38.3327 29.6671 38.3327 25V15C38.3327 10.3329 38.3327 7.9993 37.4244 6.21671C36.6255 4.64869 35.3506 3.37385 33.7826 2.57491C32 1.66663 29.6665 1.66663 24.9994 1.66663H14.9993C10.3322 1.66663 7.99869 1.66663 6.21609 2.57491C4.64808 3.37385 3.37324 4.64869 2.57429 6.21671C1.66602 7.9993 1.66602 10.3329 1.66602 15V25C1.66602 29.6671 1.66602 32.0006 2.57429 33.7832C3.37324 35.3512 4.64808 36.6261 6.21609 37.425C7.99869 38.3333 10.3322 38.3333 14.9993 38.3333Z" stroke="#0082F9" stroke-width="3" stroke-linecap="round"/>
</g>
<defs>
<clipPath id="clip0_69_5213">
<rect width="40" height="40" fill="white"/>
</clipPath>
</defs>
</svg>
