<svg width="40" height="40" viewBox="0 0 40 40" fill="none" xmlns="http://www.w3.org/2000/svg">
<g clip-path="url(#clip0_69_5215)">
<path d="M23.3327 8.49996C22.5043 8.49996 21.8327 9.17153 21.8327 9.99996C21.8327 10.8284 22.5043 11.5 23.3327 11.5V8.49996ZM29.9994 9.99996H31.4994C31.4994 9.17153 30.8278 8.49996 29.9994 8.49996V9.99996ZM28.4994 16.6666C28.4994 17.4951 29.1709 18.1666 29.9994 18.1666C30.8278 18.1666 31.4994 17.4951 31.4994 16.6666H28.4994ZM22.272 15.606C21.6862 16.1918 21.6862 17.1415 22.272 17.7273C22.8578 18.3131 23.8076 18.3131 24.3933 17.7273L22.272 15.606ZM16.666 31.5C17.4944 31.5 18.166 30.8284 18.166 30C18.166 29.1715 17.4944 28.5 16.666 28.5V31.5ZM9.99935 30L8.49935 30C8.49935 30.3978 8.65738 30.7793 8.93869 31.0606C9.21999 31.3419 9.60152 31.5 9.99935 31.5V30ZM11.4993 23.3333C11.4993 22.5049 10.8278 21.8333 9.99935 21.8333C9.17092 21.8333 8.49935 22.5049 8.49935 23.3333L11.4993 23.3333ZM17.7267 24.394C18.3125 23.8082 18.3125 22.8584 17.7267 22.2726C17.1409 21.6868 16.1911 21.6868 15.6054 22.2726L17.7267 24.394ZM6.21609 37.425L6.89708 36.0885L6.21609 37.425ZM2.57429 33.7832L3.9108 33.1022L2.57429 33.7832ZM37.4244 33.7832L36.0879 33.1022L37.4244 33.7832ZM33.7826 37.425L33.1016 36.0885L33.7826 37.425ZM33.7826 2.57491L33.1016 3.91141L33.7826 2.57491ZM37.4244 6.21671L36.0879 6.89769L37.4244 6.21671ZM6.21609 2.57491L6.89708 3.91141L6.21609 2.57491ZM2.57429 6.21671L3.9108 6.89769L2.57429 6.21671ZM23.3327 11.5H29.9994V8.49996H23.3327V11.5ZM28.4994 9.99996V16.6666H31.4994V9.99996H28.4994ZM28.9387 8.9393L22.272 15.606L24.3933 17.7273L31.06 11.0606L28.9387 8.9393ZM16.666 28.5H9.99935V31.5H16.666V28.5ZM11.4993 30L11.4993 23.3333L8.49935 23.3333L8.49935 30L11.4993 30ZM11.06 31.0606L17.7267 24.394L15.6054 22.2726L8.93869 28.9393L11.06 31.0606ZM14.9993 3.16663H24.9994V0.166626H14.9993V3.16663ZM36.8327 15V25H39.8327V15H36.8327ZM24.9994 36.8333H14.9993V39.8333H24.9994V36.8333ZM3.16602 25V15H0.166016V25H3.16602ZM14.9993 36.8333C12.641 36.8333 10.9625 36.8321 9.64818 36.7247C8.35134 36.6188 7.54168 36.4169 6.89708 36.0885L5.53511 38.7615C6.67311 39.3414 7.92152 39.5937 9.40388 39.7148C10.8687 39.8345 12.6905 39.8333 14.9993 39.8333V36.8333ZM0.166016 25C0.166016 27.3088 0.164849 29.1306 0.284532 30.5954C0.405646 32.0778 0.657945 33.3262 1.23778 34.4642L3.9108 33.1022C3.58237 32.4576 3.38052 31.648 3.27457 30.3511C3.16718 29.0368 3.16602 27.3583 3.16602 25H0.166016ZM6.89708 36.0885C5.61131 35.4334 4.56594 34.388 3.9108 33.1022L1.23778 34.4642C2.18054 36.3145 3.68485 37.8188 5.53511 38.7615L6.89708 36.0885ZM36.8327 25C36.8327 27.3583 36.8315 29.0368 36.7241 30.3511C36.6182 31.648 36.4163 32.4576 36.0879 33.1022L38.7609 34.4642C39.3408 33.3262 39.5931 32.0778 39.7142 30.5954C39.8339 29.1306 39.8327 27.3088 39.8327 25H36.8327ZM24.9994 39.8333C27.3082 39.8333 29.13 39.8345 30.5948 39.7148C32.0772 39.5937 33.3256 39.3414 34.4636 38.7615L33.1016 36.0885C32.457 36.4169 31.6474 36.6188 30.3505 36.7247C29.0362 36.8321 27.3577 36.8333 24.9994 36.8333V39.8333ZM36.0879 33.1022C35.4328 34.388 34.3874 35.4334 33.1016 36.0885L34.4636 38.7615C36.3139 37.8188 37.8182 36.3145 38.7609 34.4642L36.0879 33.1022ZM24.9994 3.16663C27.3577 3.16663 29.0362 3.16779 30.3505 3.27518C31.6474 3.38114 32.457 3.58298 33.1016 3.91141L34.4636 1.2384C33.3256 0.658555 32.0772 0.406256 30.5948 0.285142C29.13 0.165459 27.3082 0.166626 24.9994 0.166626V3.16663ZM39.8327 15C39.8327 12.6912 39.8339 10.8693 39.7142 9.40449C39.5931 7.92213 39.3408 6.67372 38.7609 5.53572L36.0879 6.89769C36.4163 7.54229 36.6182 8.35195 36.7241 9.64879C36.8315 10.9631 36.8327 12.6417 36.8327 15H39.8327ZM33.1016 3.91141C34.3874 4.56655 35.4328 5.61192 36.0879 6.89769L38.7609 5.53572C37.8182 3.68546 36.3139 2.18115 34.4636 1.2384L33.1016 3.91141ZM14.9993 0.166626C12.6905 0.166626 10.8687 0.165459 9.40388 0.285142C7.92152 0.406256 6.67311 0.658555 5.53511 1.2384L6.89708 3.91141C7.54168 3.58298 8.35134 3.38114 9.64818 3.27518C10.9625 3.16779 12.641 3.16663 14.9993 3.16663V0.166626ZM3.16602 15C3.16602 12.6417 3.16718 10.9631 3.27457 9.64879C3.38052 8.35195 3.58237 7.54229 3.9108 6.89769L1.23778 5.53572C0.657945 6.67372 0.405646 7.92213 0.284532 9.40449C0.164849 10.8693 0.166016 12.6912 0.166016 15H3.16602ZM5.53511 1.2384C3.68485 2.18115 2.18054 3.68546 1.23778 5.53572L3.9108 6.89769C4.56594 5.61192 5.61131 4.56655 6.89708 3.91141L5.53511 1.2384Z" fill="#0082F9"/>
</g>
<defs>
<clipPath id="clip0_69_5215">
<rect width="40" height="40" fill="white"/>
</clipPath>
</defs>
</svg>
