<svg width="40" height="40" viewBox="0 0 40 40" fill="none" xmlns="http://www.w3.org/2000/svg">
<path d="M20.0008 13.3334V20L22.8874 21.6667M3.76631 23.7879C3.4835 22.571 3.33398 21.303 3.33398 20C3.33398 18.6971 3.4835 17.4291 3.76631 16.2122M16.9703 3.60819C17.953 3.42769 18.9658 3.33337 20.0007 3.33337C29.2054 3.33337 36.6673 10.7953 36.6673 20C36.6673 29.2048 29.2054 36.6667 20.0007 36.6667C18.9658 36.6667 17.953 36.5724 16.9703 36.3919M11.6673 5.56308C9.39402 6.87811 7.46016 8.71466 6.02933 10.9091M6.02933 29.091C7.46016 31.2854 9.39402 33.122 11.6673 34.437" stroke="#0082F9" stroke-width="3" stroke-linecap="round"/>
</svg>
