<svg width="200" height="132" viewBox="0 0 200 132" fill="none" xmlns="http://www.w3.org/2000/svg">
<path d="M151.149 30.5H48.8489C46.0026 30.5 43.6953 32.8073 43.6953 35.6536V107.812C43.6953 110.658 46.0026 112.965 48.8489 112.965H151.149C153.995 112.965 156.303 110.658 156.303 107.812V35.6536C156.303 32.8073 153.995 30.5 151.149 30.5Z" stroke="#FFF" stroke-width="3"/>
<path d="M45.4238 38.3938L156.31 38.26" stroke="#FFF" stroke-width="1.56499"/>
<circle cx="48.5063" cy="35.5394" r="0.799221" fill="#FFF"/>
<circle cx="51.018" cy="35.5394" r="0.799221" fill="#FFF"/>
<circle cx="53.5297" cy="35.5394" r="0.799221" fill="#FFF"/>
<rect x="50.1067" y="45.1813" width="99.435" height="27.435" rx="2.87109" stroke="#FFF" stroke-width="1.56499"/>
<rect x="118.107" y="76.1813" width="31.435" height="27.435" rx="2.87109" stroke="#FFF" stroke-width="1.56499"/>
<rect x="50.1067" y="76.1813" width="62.435" height="27.435" rx="2.87109" stroke="#FFF" stroke-width="1.56499"/>
<path d="M169.793 23.4376C169.658 23.97 169.972 24.5132 170.5 24.6623L174.261 25.67C174.794 25.8129 175.343 25.4963 175.486 24.9629C175.629 24.4294 175.312 23.8811 174.779 23.7381L171.018 22.7304C170.484 22.5875 169.936 22.9041 169.793 23.4376Z" fill="white"/>
<path d="M174.181 17.3226C174.45 17.789 174.302 18.3849 173.845 18.6705L170.467 20.6642C170.239 20.8002 169.965 20.8381 169.708 20.7692C169.45 20.7004 169.232 20.5306 169.102 20.2984C168.966 20.0699 168.93 19.7958 169.002 19.5399C169.059 19.2616 169.234 19.0217 169.482 18.8817L172.846 16.9395C173.321 16.6869 173.912 16.8562 174.181 17.3226Z" fill="white"/>
<path d="M168.979 27.816C168.849 27.5806 168.815 27.3047 168.882 27.0446C168.969 26.786 169.155 26.5727 169.4 26.4517C169.628 26.3157 169.902 26.2778 170.159 26.3467C170.416 26.4156 170.635 26.5854 170.765 26.8175L172.626 30.1737C172.772 30.3932 172.824 30.6618 172.77 30.9196C172.717 31.1775 172.562 31.4033 172.341 31.5467C171.863 31.8223 171.252 31.6586 170.976 31.1809L168.979 27.816Z" fill="white"/>
<path d="M164.236 15.5851L162.255 12.2108C161.98 11.7792 161.421 11.6293 160.967 11.8657C160.738 11.9981 160.57 12.2163 160.501 12.4723C160.438 12.7288 160.474 12.9995 160.602 13.2308L162.467 16.5741C162.743 17.0518 163.354 17.2155 163.832 16.9399C164.068 16.8165 164.244 16.603 164.32 16.3478C164.396 16.0927 164.366 15.8176 164.236 15.5851Z" fill="white"/>
<path d="M168.886 13.5319L167.878 17.2926C167.735 17.826 167.187 18.1426 166.654 17.9997C166.12 17.8567 165.804 17.3084 165.947 16.7749L166.954 13.0143C167.097 12.4808 167.645 12.1642 168.179 12.3072C168.712 12.4501 169.029 12.9984 168.886 13.5319Z" fill="white"/>
<path d="M31.8162 120.136C31.9514 119.603 31.6378 119.06 31.1091 118.911L27.3484 117.903C26.815 117.76 26.2666 118.077 26.1237 118.61C25.9807 119.144 26.2973 119.692 26.8308 119.835L30.5915 120.843C31.1249 120.986 31.6733 120.669 31.8162 120.136Z" fill="white"/>
<path d="M27.4285 126.25C27.1593 125.784 27.3077 125.188 27.7643 124.903L31.1421 122.909C31.3708 122.773 31.6448 122.735 31.9018 122.804C32.1589 122.873 32.3772 123.042 32.5073 123.275C32.6429 123.503 32.6792 123.777 32.6077 124.033C32.55 124.311 32.375 124.551 32.1277 124.691L28.7637 126.634C28.2881 126.886 27.6978 126.717 27.4285 126.25Z" fill="white"/>
<path d="M32.6305 115.757C32.76 115.992 32.7947 116.268 32.7275 116.528C32.6405 116.787 32.4542 117 32.2097 117.121C31.981 117.257 31.7071 117.295 31.45 117.226C31.193 117.157 30.9746 116.988 30.8446 116.756L28.9831 113.399C28.8375 113.18 28.7857 112.911 28.8393 112.653C28.8928 112.396 29.0473 112.17 29.2682 112.026C29.7462 111.751 30.3572 111.914 30.6334 112.392L32.6305 115.757Z" fill="white"/>
<path d="M37.3732 127.988L39.354 131.362C39.6289 131.794 40.1881 131.944 40.6419 131.707C40.8716 131.575 41.0393 131.357 41.1081 131.101C41.1709 130.844 41.1351 130.574 41.0077 130.342L39.1428 126.999C38.8666 126.521 38.2557 126.358 37.7776 126.633C37.5417 126.757 37.3656 126.97 37.2895 127.225C37.2133 127.48 37.2435 127.755 37.3732 127.988Z" fill="white"/>
<path d="M32.7233 130.041L33.731 126.28C33.874 125.747 34.4223 125.43 34.9558 125.573C35.4892 125.716 35.8058 126.265 35.6629 126.798L34.6552 130.559C34.5123 131.092 33.9639 131.409 33.4305 131.266C32.897 131.123 32.5804 130.575 32.7233 130.041Z" fill="white"/>
</svg>
